<?xml version="1.0" encoding="UTF-8" standalone="no"?>
<!-- Created with Inkscape (http://www.inkscape.org/) -->

<svg
   viewBox="0 0 936 65"
   version="1.1"
   id="svg5"
   inkscape:version="1.1.1 (3bf5ae0d25, 2021-09-20)"
   sodipodi:docname="logo.svg"
   xmlns:inkscape="http://www.inkscape.org/namespaces/inkscape"
   xmlns:sodipodi="http://sodipodi.sourceforge.net/DTD/sodipodi-0.dtd"
   xmlns="http://www.w3.org/2000/svg"
   xmlns:svg="http://www.w3.org/2000/svg">
  <sodipodi:namedview
     id="namedview7"
     pagecolor="#ffffff"
     bordercolor="#999999"
     borderopacity="1"
     inkscape:pageshadow="0"
     inkscape:pageopacity="0"
     inkscape:pagecheckerboard="0"
     inkscape:document-units="px"
     showgrid="false"
     inkscape:zoom="0.788866"
     inkscape:cx="434.16753"
     inkscape:cy="69.086511"
     inkscape:window-width="1920"
     inkscape:window-height="1009"
     inkscape:window-x="-8"
     inkscape:window-y="-8"
     inkscape:window-maximized="1"
     inkscape:current-layer="layer1" />
  <defs
     id="defs2" />
  <g
     inkscape:label="Layer 1"
     inkscape:groupmode="layer"
     id="layer1"
     transform="translate(-83.657229,-61.723583)">
    <path
       style="fill:#fffefd;fill-opacity:1"
       d="m 100.65723,121.22358 v -5.5 h -3.000001 -3 v -5.5 -5.5 h -2.5 -2.5 v -5.499997 -5.5 h -3 -3 v -13.5 -13.5 h 3 3 v -2.5 -2.5 h 7.5 7.500001 v 5.5 5.5 h 3 3 v 5.5 5.5 h 3 3 v -5.5 -5.5 h 2.5 2.5 v -5.5 -5.5 h 8 8 v 2.5 2.5 h 2.5 2.5 v 13.5 13.5 h -2.5 -2.5 v 5.5 5.499997 h -3 -3 v 5.5 5.5 h -2.5 -2.5 v 5.5 5.5 h -13 -13 z m 21,-10.5 v -6 h 3 3 v -4.999997 -5 h 2.5 2.5 v -5.5 -5.5 h 3 3 v -6 -6 h -3 -3 v -2.5 -2.5 h -3 -3 v 5 5 h -3 -3 v 6 6 h -2.5 -2.5 v 5 5 h -2 -2 v -5 -5 h -3 -3 v -6 -6 h -2.5 -2.5 v -5 -5 h -3.500001 -3.5 v 2.5 2.5 h -2.5 -2.5 v 6 6 h 2.5 2.5 v 5.5 5.5 h 3 3 v 5 4.999997 h 2.500001 2.5 v 6 6 h 8.5 8.5 z m 29,-19.499997 v -24.5 h 10.5 10.5 v 8 8 h -3 -3 v 8 8 h -2.5 -2.5 v 8.499997 8.5 h -5 -5 z m 40,21.499997 v -3 h -3 -3 v -2.5 -2.5 h -2.5 -2.5 v -2.5 -2.499997 h 2.5 2.5 v -3 -3 h 2.5 2.5 v 3 3 h 2.5 2.5 v 2.999997 3 h 8.5 8.5 v -3.5 -3.499997 h -2.5 -2.5 v -2.5 -2.5 h -5.5 -5.5 v -2.5 -2.5 h -5.5 -5.5 v -3 -3 h -2.5 -2.5 v -2.5 -2.5 h 2.5 2.5 v -2.5 -2.5 h 3 3 v -3 -3 h 13 13 v 3 3 h 2.5 2.5 v 2 2 h -2.5 -2.5 v 3 3 h -2.5 -2.5 v -3 -3 h -8.5 -8.5 v 3.5 3.5 h 2.5 2.5 v 2.5 2.5 h 8.5 8.5 v 2.5 2.5 h 2.5 2.5 v 7.999997 8 h -2.5 -2.5 v 3 3 h -13 -13 z m 50,0 v -3 h -2.5 -2.5 v -2.5 -2.5 h -3 -3 v -18.999997 -19 h 5 5 v 16.5 16.5 h 2.5 2.5 v 2.999997 3 h 9 9 v -3 -2.999997 h 2.5 2.5 v -13.5 -13.5 h 5 5 v 16 15.999997 h -3 -3 v 2.5 2.5 h -2.5 -2.5 v 3 3 h -13 -13 z m 45,-5 v -7.999997 h 2.5 2.5 v -5.5 -5.5 h 3 3 v -5.5 -5.5 h 2.5 2.5 v -5.5 -5.5 h 7.5 7.5 v 3 3 h 3 3 v 2.5 2.5 h 2.5 2.5 v 19 18.999997 h -7.5 -7.5 v -5.5 -5.5 h -6 -6 v 5.5 5.5 h -7.5 -7.5 z m 32,-16.499997 v -8.5 h -8.5 -8.5 v 8.5 8.5 h 8.5 8.5 z m 18,16.499997 v -7.999997 h 3 3 v -8 -8 h 2.5 2.5 v -8.5 -8.5 h 5 5 v 10.5 10.5 h -2.5 -2.5 v 9 8.999997 h 13.5 13.5 v 5 5 h -21.5 -21.5 z m 51,-16.499997 v -24.5 h 10 10 v 8 8 h -2.5 -2.5 v 8 8 h -3 -3 v 8.499997 8.5 h -4.5 -4.5 z m 28,16.499997 v -7.999997 h 3 3 v -2.5 -2.5 h 2.5 2.5 v -3 -3 h 3 3 v -2.5 -2.5 h 2.5 2.5 v -3.5 -3.5 h -11 -11 v -5 -5 h 16 16 v 3 3 h 2.5 2.5 v 5 5 h -2.5 -2.5 v 3 3 h -3 -3 v 2.5 2.5 h -2.5 -2.5 v 2.5 2.5 h -2.5 -2.5 v 3.499997 3.5 h 10.5 10.5 v 5 5 h -18.5 -18.5 z m 45,0 v -7.999997 h 3 3 v -5.5 -5.5 h 2.5 2.5 v -5.5 -5.5 h 2.5 2.5 v -5.5 -5.5 h 8 8 v 3 3 h 2.5 2.5 v 2.5 2.5 h 3 3 v 19 18.999997 h -8 -8 v -5.5 -5.5 h -5.5 -5.5 v 5.5 5.5 h -8 -8 z m 33,-16.499997 v -8.5 h -8.5 -8.5 v 8.5 8.5 h 8.5 8.5 z m 28,16.499997 v -7.999997 h 3 3 v -11.5 -11.5 h -8 -8 v -5 -5 h 21 21 v 5 5 h -8 -8 v 19.5 19.499997 h -8 -8 z m 40,-16.499997 v -24.5 h 10.5 10.5 v 8 8 h -3 -3 v 8 8 h -2.5 -2.5 v 8.499997 8.5 h -5 -5 z m 39,21.499997 v -3 h -2.5 -2.5 v -2.5 -2.5 h -2.5 -2.5 v -10.499997 -10.5 h 2.5 2.5 v -3 -3 h 2.5 2.5 v -2.5 -2.5 h 3 3 v -3 -3 h 7.5 7.5 v 3 3 h 3 3 v 2.5 2.5 h 2.5 2.5 v 13.5 13.499997 h -2.5 -2.5 v 2.5 2.5 h -3 -3 v 3 3 h -10.5 -10.5 z m 17,-10 v -2.999997 h 2.5 2.5 v -8.5 -8.5 h -2.5 -2.5 v -3 -3 h -6 -6 v 3 3 h -3 -3 v 8.5 8.5 h 3 3 v 2.999997 3 h 6 6 z m 23,-8.499997 v -21.5 h 2.5 2.5 v -3 -3 h 2.5 2.5 v 3 3 h 2.5 2.5 v 2.5 2.5 h 3 3 v 3 3 h 2.5 2.5 v 2.5 2.5 h 3.5 3.5 v -11 -11 h 4.5 4.5 v 21.5 21.499997 h -4.5 -4.5 v -2.5 -2.5 h -3 -3 v -2.5 -2.499997 h -2.5 -2.5 v -3 -3 h -3 -3 v -3 -3 h -3 -3 v 13.999997 14 h -5 -5 z m 84,-3 v -24.5 h 10.5 10.50002 v 8 8 h -2.5 -2.50001 v 8 8 h -3.00001 -3 v 8.499997 8.5 h -5 -5 z m 29.00002,3 v -21.5 h 3 3 v -3 -3 h 2 2 v 3 3 h 2.5 2.5 v 2.5 2.5 h 3 3 v 3 3 h 2.5 2.5 v 2.5 2.5 h 3.5 3.5 v -11 -11 h 5 5 v 21.5 21.499997 h -5 -5 v -2.5 -2.5 h -3 -3 v -2.5 -2.499997 h -2.5 -2.5 v -3 -3 h -3 -3 v -3 -3 h -3 -3 v 13.999997 14 h -5 -5 z m 51,13.499997 v -7.999997 h 2.5 2.5 v -5.5 -5.5 h 2.5 2.5 v -5.5 -5.5 h 3 3 v -5.5 -5.5 h 7.5 7.5 v 3 3 h 2.5 2.5 v 2.5 2.5 h 3 3 v 19 18.999997 h -7.5 -7.5 v -5.5 -5.5 h -6 -6 v 5.5 5.5 h -7.5 -7.5 z m 32,-16.499997 v -8.5 h -8.5 -8.5 v 8.5 8.5 h 8.5 8.5 z m 29,16.499997 v -7.999997 h 2.5 2.5 v -11.5 -11.5 h -8 -8 v -5 -5 h 21 21 v 5 5 h -8 -8 v 19.5 19.499997 h -7.5 -7.5 z m 50,5 v -3 h -2.5 -2.5 v -2.5 -2.5 h -3 -3 v -10.499997 -10.5 h 3 3 v -3 -3 h 2.5 2.5 v -2.5 -2.5 h 2.5 2.5 v -3 -3 h 8 8 v 3 3 h 2.5 2.5 v 2.5 2.5 h 3 3 v 13.5 13.499997 h -3 -3 v 2.5 2.5 h -2.5 -2.5 v 3 3 h -10.5 -10.5 z m 16,-10 v -2.999997 h 3 3 v -8.5 -8.5 h -3 -3 v -3 -3 h -5.5 -5.5 v 3 3 h -3 -3 v 8.5 8.5 h 3 3 v 2.999997 3 h 5.5 5.5 z m 24,-11.499997 v -24.5 h 15.5 15.5 v 3 3 h 3 3 v 2.5 2.5 h 2.5 2.5 v 5 5 h -2.5 -2.5 v 3 3 h -3 -3 v 3 3 h 3 3 v 2.499997 2.5 h 2.5 2.5 v 2.5 2.5 h -2.5 -2.5 v 3 3 h -2.5 -2.5 v -3 -3 h -2.5 -2.5 v -2.5 -2.5 h -3 -3 v -3 -2.999997 h -6 -6 v 8.499997 8.5 h -4.5 -4.5 z m 27,0 v -2.5 h 2.5 2.5 v -6 -6 h -11.5 -11.5 v 8.5 8.5 h 9 9 z m 22.99995,19.499997 v -5 h 5 5 v 5 5 h -5 -5 z m 0,-27.999997 v -16 h 7.5 7.5 v 8 8 h -2.5 -2.5 v 8 8 h -5 -5 z m -314.99997,6 v -5 h 13 13 v 5 5 h -13 -13 z"
       id="path125766" />
  </g>
</svg>
